<?xml version="1.0"?>
<svg xmlns="http://www.w3.org/2000/svg" xmlns:xlink="http://www.w3.org/1999/xlink" viewBox="0 0 512 512" width="512" height="512"><defs><linearGradient id="linear-gradient" x1="16" y1="260" x2="496" y2="260" gradientUnits="userSpaceOnUse"><stop offset="0" stop-color="#35e0d1"/><stop offset="1" stop-color="#f07ff1"/></linearGradient></defs><g id="gradient"><path d="M447.242,355.172A143.58,143.58,0,0,0,464,288c0-79.4-64.6-144-144-144-4.642,0-9.221.265-13.752.7A143.706,143.706,0,0,0,192,88C112.6,88,48,152.6,48,232a143.58,143.58,0,0,0,16.758,67.172L18.844,337.883A8,8,0,0,0,24,352h88.477A143.109,143.109,0,0,0,192,376c4.642,0,9.221-.265,13.752-.7A143.567,143.567,0,0,0,399.523,408H488a8,8,0,0,0,5.156-14.117ZM192,360a127.248,127.248,0,0,1-72.531-22.586A7.978,7.978,0,0,0,114.93,336H45.9l34.227-28.852a8,8,0,0,0,1.727-10.187A127.823,127.823,0,0,1,288.065,147.692C224,162.275,176,219.588,176,288a142.936,142.936,0,0,0,19.381,71.829C194.247,359.858,193.142,360,192,360Zm21.041-1.882A127.173,127.173,0,0,1,192,288c0-63.4,46.379-116.033,106.959-126.118A127.173,127.173,0,0,1,320,232C320,295.4,273.621,348.033,213.041,358.118ZM397.07,392a7.978,7.978,0,0,0-4.539,1.414,127.576,127.576,0,0,1-168.6-21.106C288,357.725,336,300.412,336,232a142.936,142.936,0,0,0-19.381-71.829c1.134-.029,2.239-.171,3.381-.171A127.81,127.81,0,0,1,430.148,352.961a8,8,0,0,0,1.727,10.187L466.1,392ZM248,248h16v16H248Zm-32,0h16v16H216Zm80,16H280V248h16Z" style="fill:url(#linear-gradient)"/></g></svg>
